<svg width="60" height="61" viewBox="0 0 60 61" fill="none" xmlns="http://www.w3.org/2000/svg">
<path fill-rule="evenodd" clip-rule="evenodd" d="M51.8182 0C56.337 0 60 3.72419 60 8.31818V52.6818C60 57.2759 56.337 61 51.8182 61H8.18182C3.66314 61 0 57.2759 0 52.6818V8.31818C0 3.72419 3.66314 0 8.18182 0H51.8182ZM51.8182 5.54545C53.3245 5.54545 54.5455 6.78686 54.5455 8.31818V52.6818C54.5455 54.2132 53.3245 55.4545 51.8182 55.4545H38.1818V36.0452H43.8442C45.018 36.0452 46.0601 35.2816 46.4315 34.1492L47.6397 30.4642C48.0813 29.1175 47.0954 27.727 45.6993 27.727H38.1818V22.1816C38.1818 20.7952 39.5455 19.4089 40.9091 19.4089H46.3636C47.8699 19.4089 49.0909 18.1675 49.0909 16.6361V14.7341C49.0909 13.8384 48.5283 13.0354 47.6763 12.8069C44.1014 11.8477 40.9091 11.8477 40.9091 11.8477C34.0909 11.8477 30 16.6361 30 20.7952V27.727H24.5455C23.0392 27.727 21.8182 28.9683 21.8182 30.4997V33.2724C21.8182 34.8038 23.0392 36.0452 24.5455 36.0452H30V55.4545H8.18182C6.6756 55.4545 5.45455 54.2132 5.45455 52.6818V8.31818C5.45455 6.78686 6.6756 5.54545 8.18182 5.54545H51.8182Z" fill="#00CC7F"/>
</svg>
