<svg width="62" height="62" viewBox="0 0 62 62" fill="none" xmlns="http://www.w3.org/2000/svg">
<path d="M43.153 61.3337H19.3745C9.02214 61.3337 0.596924 52.9084 0.596924 42.5561V18.7776C0.596924 8.42521 9.02214 0 19.3745 0H43.153C53.5054 0 61.9306 8.42521 61.9306 18.7776V42.5561C61.9306 52.9084 53.5054 61.3337 43.153 61.3337ZM19.3745 4.58688C11.5545 4.58688 5.18381 10.9496 5.18381 18.7776V42.5561C5.18381 50.3761 11.5465 56.7468 19.3745 56.7468H43.153C50.973 56.7468 57.3437 50.3841 57.3437 42.5561V18.7776C57.3437 10.9576 50.981 4.58688 43.153 4.58688H19.3745Z" fill="#00CC7F"/>
<path d="M31.2638 46.1794C22.7112 46.1794 15.7512 39.2194 15.7512 30.6589C15.7512 22.0983 22.7112 15.1383 31.2638 15.1383C39.8164 15.1383 46.7764 22.0983 46.7764 30.6589C46.7764 39.2194 39.8164 46.1794 31.2638 46.1794ZM31.2638 19.8446C25.2993 19.8446 20.4496 24.6943 20.4496 30.6589C20.4496 36.6234 25.2993 41.4731 31.2638 41.4731C37.2284 41.4731 42.078 36.6234 42.078 30.6589C42.078 24.6943 37.2284 19.8446 31.2638 19.8446Z" fill="#00CC7F"/>
<path d="M52.5099 13.458C52.5099 15.6878 50.7022 17.4954 48.4725 17.4954C46.2427 17.4954 44.4351 15.6878 44.4351 13.458C44.4351 11.2283 46.2427 9.42061 48.4725 9.42061C50.7022 9.42061 52.5099 11.2283 52.5099 13.458Z" fill="#00CC7F"/>
</svg>
